  0
SECTION
  2
HEADER
  9
$ACADVER
  1
AC1014
  9
$HANDSEED
  5
FFFF
  9
$MEASUREMENT
 70
     1
  0
ENDSEC
  0
SECTION
  2
TABLES
  0
TABLE
  2
VPORT
  5
8
330
0
100
AcDbSymbolTable
 70
     4
  0
VPORT
  5
2E
330
8
100
AcDbSymbolTableRecord
100
AcDbViewportTableRecord
  2
*ACTIVE
 70
     0
 10
0.0
 20
0.0
 11
1.0
 21
1.0
 12
210.0
 22
148.5
 13
0.0
 23
0.0
 14
10.0
 24
10.0
 15
10.0
 25
10.0
 16
0.0
 26
0.0
 36
1.0
 17
0.0
 27
0.0
 37
0.0
 40
341.0
 41
1.24
 42
50.0
 43
0.0
 44
0.0
 50
0.0
 51
0.0
 71
     0
 72
   100
 73
     1
 74
     3
 75
     0
 76
     0
 77
     0
 78
     0
  0
ENDTAB
  0
TABLE
  2
LTYPE
  5
5
330
0
100
AcDbSymbolTable
 70
     1
  0
LTYPE
  5
14
330
5
100
AcDbSymbolTableRecord
100
AcDbLinetypeTableRecord
  2
BYBLOCK
 70
     0
  3

 72
    65
 73
     0
 40
0.0
  0
LTYPE
  5
15
330
5
100
AcDbSymbolTableRecord
100
AcDbLinetypeTableRecord
  2
BYLAYER
 70
     0
  3

 72
    65
 73
     0
 40
0.0
  0
LTYPE
  5
16
330
5
100
AcDbSymbolTableRecord
100
AcDbLinetypeTableRecord
  2
CONTINUOUS
 70
     0
  3
Solid line
 72
    65
 73
     0
 40
0.0
  0
ENDTAB
  0
TABLE
  2
LAYER
  5
2
100
AcDbSymbolTable
 70
3
  0
LAYER
  5
50
100
AcDbSymbolTableRecord
100
AcDbLayerTableRecord
  2
0
 70
0
  6
CONTINUOUS
  0
LAYER
  5
51
100
AcDbSymbolTableRecord
100
AcDbLayerTableRecord
  2
Help
 70
0
  6
CONTINUOUS
  0
LAYER
  5
52
100
AcDbSymbolTableRecord
100
AcDbLayerTableRecord
  2
cutting
 70
0
  6
CONTINUOUS
  0
ENDTAB
  0
TABLE
  2
STYLE
  5
3
330
0
100
AcDbSymbolTable
 70
     1
  0
STYLE
  5
11
330
3
100
AcDbSymbolTableRecord
100
AcDbTextStyleTableRecord
  2
STANDARD
 70
     0
 40
0.0
 41
1.0
 50
0.0
 71
     0
 42
2.5
  3
txt
  4

  0
ENDTAB
  0
TABLE
  2
VIEW
  5
6
330
0
100
AcDbSymbolTable
 70
     0
  0
ENDTAB
  0
TABLE
  2
UCS
  5
7
330
0
100
AcDbSymbolTable
 70
     0
  0
ENDTAB
  0
TABLE
  2
APPID
  5
9
330
0
100
AcDbSymbolTable
 70
     2
  0
APPID
  5
12
330
9
100
AcDbSymbolTableRecord
100
AcDbRegAppTableRecord
  2
ACAD
 70
     0
  0
ENDTAB
  0
TABLE
  2
DIMSTYLE
  5
A
330
0
100
AcDbSymbolTable
 70
     1
  0
DIMSTYLE
105
27
330
A
100
AcDbSymbolTableRecord
100
AcDbDimStyleTableRecord
  2
ISO-25
 70
     0
  3

  4

  5

  6

  7

 40
1.0
 41
2.5
 42
0.625
 43
3.75
 44
1.25
 45
0.0
 46
0.0
 47
0.0
 48
0.0
140
2.5
141
2.5
142
0.0
143
0.03937007874016
144
1.0
145
0.0
146
1.0
147
0.625
 71
     0
 72
     0
 73
     0
 74
     0
 75
     0
 76
     0
 77
     1
 78
     8
170
     0
171
     3
172
     1
173
     0
174
     0
175
     0
176
     0
177
     0
178
     0
270
     2
271
     2
272
     2
273
     2
274
     3
340
11
275
     0
280
     0
281
     0
282
     0
283
     0
284
     8
285
     0
286
     0
287
     3
288
     0
  0
ENDTAB
  0
TABLE
  2
BLOCK_RECORD
  5
1
330
0
100
AcDbSymbolTable
 70
     1
  0
BLOCK_RECORD
  5
1F
330
1
100
AcDbSymbolTableRecord
100
AcDbBlockTableRecord
  2
*MODEL_SPACE
  0
BLOCK_RECORD
  5
1B
330
1
100
AcDbSymbolTableRecord
100
AcDbBlockTableRecord
  2
*PAPER_SPACE
  0
ENDTAB
  0
ENDSEC
  0
SECTION
  2
BLOCKS
  0
BLOCK
  5
20
330
1F
100
AcDbEntity
  8
0
100
AcDbBlockBegin
  2
*MODEL_SPACE
 70
     0
 10
0.0
 20
0.0
 30
0.0
  3
*MODEL_SPACE
  1

  0
ENDBLK
  5
21
330
1F
100
AcDbEntity
  8
0
100
AcDbBlockEnd
  0
BLOCK
  5
1C
330
1B
100
AcDbEntity
 67
     1
  8
0
100
AcDbBlockBegin
  2
*PAPER_SPACE
  1

  0
ENDBLK
  5
1D
330
1B
100
AcDbEntity
 67
     1
  8
0
100
AcDbBlockEnd
  0
ENDSEC
  0
SECTION
  2
ENTITIES
  0
SPLINE
  5
100
100
AcDbEntity
  8
Help
 62
7
100
AcDbSpline
 70
8
 71
3
 72
8
 73
4
 74
0
 40
0
 40
0
 40
0
 40
0
 40
1
 40
1
 40
1
 40
1
 10
59.864994
 20
-2.574791
 30
0.0
 10
59.440309
 20
-2.574791
 30
0.0
 10
59.057441
 20
-2.830615
 30
0.0
 10
58.894921
 20
-3.222973
 30
0.0
  0
SPLINE
  5
101
100
AcDbEntity
  8
Help
 62
7
100
AcDbSpline
 70
8
 71
3
 72
8
 73
4
 74
0
 40
0
 40
0
 40
0
 40
0
 40
1
 40
1
 40
1
 40
1
 10
58.894921
 20
-3.222973
 30
0.0
 10
58.732401
 20
-3.615331
 30
0.0
 10
58.822235
 20
-4.066955
 30
0.0
 10
59.122532
 20
-4.367253
 30
0.0
  0
SPLINE
  5
102
100
AcDbEntity
  8
Help
 62
7
100
AcDbSpline
 70
8
 71
3
 72
8
 73
4
 74
0
 40
0
 40
0
 40
0
 40
0
 40
1
 40
1
 40
1
 40
1
 10
59.122532
 20
-4.367253
 30
0.0
 10
59.422830
 20
-4.667550
 30
0.0
 10
59.874454
 20
-4.757384
 30
0.0
 10
60.266812
 20
-4.594864
 30
0.0
  0
SPLINE
  5
103
100
AcDbEntity
  8
Help
 62
7
100
AcDbSpline
 70
8
 71
3
 72
8
 73
4
 74
0
 40
0
 40
0
 40
0
 40
0
 40
1
 40
1
 40
1
 40
1
 10
60.266812
 20
-4.594864
 30
0.0
 10
60.659170
 20
-4.432344
 30
0.0
 10
60.914994
 20
-4.049476
 30
0.0
 10
60.914994
 20
-3.624791
 30
0.0
  0
SPLINE
  5
104
100
AcDbEntity
  8
Help
 62
7
100
AcDbSpline
 70
8
 71
3
 72
8
 73
4
 74
0
 40
0
 40
0
 40
0
 40
0
 40
1
 40
1
 40
1
 40
1
 10
60.914994
 20
-3.624791
 30
0.0
 10
60.914994
 20
-3.346313
 30
0.0
 10
60.804370
 20
-3.079242
 30
0.0
 10
60.607457
 20
-2.882328
 30
0.0
  0
SPLINE
  5
105
100
AcDbEntity
  8
Help
 62
7
100
AcDbSpline
 70
8
 71
3
 72
8
 73
4
 74
0
 40
0
 40
0
 40
0
 40
0
 40
1
 40
1
 40
1
 40
1
 10
60.607457
 20
-2.882328
 30
0.0
 10
60.410543
 20
-2.685415
 30
0.0
 10
60.143472
 20
-2.574791
 30
0.0
 10
59.864994
 20
-2.574791
 30
0.0
  0
SPLINE
  5
106
100
AcDbEntity
  8
Help
 62
7
100
AcDbSpline
 70
8
 71
3
 72
8
 73
4
 74
0
 40
0
 40
0
 40
0
 40
0
 40
1
 40
1
 40
1
 40
1
 10
37.624997
 20
-2.574791
 30
0.0
 10
37.200311
 20
-2.574791
 30
0.0
 10
36.817443
 20
-2.830615
 30
0.0
 10
36.654923
 20
-3.222973
 30
0.0
  0
SPLINE
  5
107
100
AcDbEntity
  8
Help
 62
7
100
AcDbSpline
 70
8
 71
3
 72
8
 73
4
 74
0
 40
0
 40
0
 40
0
 40
0
 40
1
 40
1
 40
1
 40
1
 10
36.654923
 20
-3.222973
 30
0.0
 10
36.492403
 20
-3.615331
 30
0.0
 10
36.582237
 20
-4.066955
 30
0.0
 10
36.882534
 20
-4.367253
 30
0.0
  0
SPLINE
  5
108
100
AcDbEntity
  8
Help
 62
7
100
AcDbSpline
 70
8
 71
3
 72
8
 73
4
 74
0
 40
0
 40
0
 40
0
 40
0
 40
1
 40
1
 40
1
 40
1
 10
36.882534
 20
-4.367253
 30
0.0
 10
37.182832
 20
-4.667550
 30
0.0
 10
37.634456
 20
-4.757384
 30
0.0
 10
38.026814
 20
-4.594864
 30
0.0
  0
SPLINE
  5
109
100
AcDbEntity
  8
Help
 62
7
100
AcDbSpline
 70
8
 71
3
 72
8
 73
4
 74
0
 40
0
 40
0
 40
0
 40
0
 40
1
 40
1
 40
1
 40
1
 10
38.026814
 20
-4.594864
 30
0.0
 10
38.419172
 20
-4.432344
 30
0.0
 10
38.674996
 20
-4.049476
 30
0.0
 10
38.674996
 20
-3.624791
 30
0.0
  0
SPLINE
  5
10a
100
AcDbEntity
  8
Help
 62
7
100
AcDbSpline
 70
8
 71
3
 72
8
 73
4
 74
0
 40
0
 40
0
 40
0
 40
0
 40
1
 40
1
 40
1
 40
1
 10
38.674996
 20
-3.624791
 30
0.0
 10
38.674996
 20
-3.044892
 30
0.0
 10
38.204895
 20
-2.574791
 30
0.0
 10
37.624997
 20
-2.574791
 30
0.0
  0
LWPOLYLINE
  5
10b
100
AcDbEntity
  8
Help
 62
7
100
AcDbPolyline
 90
1
 70
1
 10
59.864994
 20
-2.574791
 30
0.0
  0
SPLINE
  5
10c
100
AcDbEntity
  8
Help
 62
7
100
AcDbSpline
 70
8
 71
3
 72
8
 73
4
 74
0
 40
0
 40
0
 40
0
 40
0
 40
1
 40
1
 40
1
 40
1
 10
93.864991
 20
-25.074789
 30
0.0
 10
93.440306
 20
-25.074789
 30
0.0
 10
93.057438
 20
-25.330613
 30
0.0
 10
92.894918
 20
-25.722971
 30
0.0
  0
SPLINE
  5
10d
100
AcDbEntity
  8
Help
 62
7
100
AcDbSpline
 70
8
 71
3
 72
8
 73
4
 74
0
 40
0
 40
0
 40
0
 40
0
 40
1
 40
1
 40
1
 40
1
 10
92.894918
 20
-25.722971
 30
0.0
 10
92.732398
 20
-26.115329
 30
0.0
 10
92.822231
 20
-26.566953
 30
0.0
 10
93.122529
 20
-26.867251
 30
0.0
  0
SPLINE
  5
10e
100
AcDbEntity
  8
Help
 62
7
100
AcDbSpline
 70
8
 71
3
 72
8
 73
4
 74
0
 40
0
 40
0
 40
0
 40
0
 40
1
 40
1
 40
1
 40
1
 10
93.122529
 20
-26.867251
 30
0.0
 10
93.422827
 20
-27.167548
 30
0.0
 10
93.874451
 20
-27.257382
 30
0.0
 10
94.266809
 20
-27.094862
 30
0.0
  0
SPLINE
  5
10f
100
AcDbEntity
  8
Help
 62
7
100
AcDbSpline
 70
8
 71
3
 72
8
 73
4
 74
0
 40
0
 40
0
 40
0
 40
0
 40
1
 40
1
 40
1
 40
1
 10
94.266809
 20
-27.094862
 30
0.0
 10
94.659167
 20
-26.932342
 30
0.0
 10
94.914991
 20
-26.549474
 30
0.0
 10
94.914991
 20
-26.124788
 30
0.0
  0
SPLINE
  5
110
100
AcDbEntity
  8
Help
 62
7
100
AcDbSpline
 70
8
 71
3
 72
8
 73
4
 74
0
 40
0
 40
0
 40
0
 40
0
 40
1
 40
1
 40
1
 40
1
 10
94.914991
 20
-26.124788
 30
0.0
 10
94.914991
 20
-25.846311
 30
0.0
 10
94.804367
 20
-25.579240
 30
0.0
 10
94.607453
 20
-25.382326
 30
0.0
  0
SPLINE
  5
111
100
AcDbEntity
  8
Help
 62
7
100
AcDbSpline
 70
8
 71
3
 72
8
 73
4
 74
0
 40
0
 40
0
 40
0
 40
0
 40
1
 40
1
 40
1
 40
1
 10
94.607453
 20
-25.382326
 30
0.0
 10
94.410540
 20
-25.185413
 30
0.0
 10
94.143469
 20
-25.074789
 30
0.0
 10
93.864991
 20
-25.074789
 30
0.0
  0
LWPOLYLINE
  5
112
100
AcDbEntity
  8
Help
 62
7
100
AcDbPolyline
 90
1
 70
1
 10
37.624997
 20
-2.574791
 30
0.0
  0
SPLINE
  5
113
100
AcDbEntity
  8
Help
 62
7
100
AcDbSpline
 70
8
 71
3
 72
8
 73
4
 74
0
 40
0
 40
0
 40
0
 40
0
 40
1
 40
1
 40
1
 40
1
 10
3.625000
 20
-25.074789
 30
0.0
 10
3.200314
 20
-25.074789
 30
0.0
 10
2.817446
 20
-25.330613
 30
0.0
 10
2.654926
 20
-25.722971
 30
0.0
  0
SPLINE
  5
114
100
AcDbEntity
  8
Help
 62
7
100
AcDbSpline
 70
8
 71
3
 72
8
 73
4
 74
0
 40
0
 40
0
 40
0
 40
0
 40
1
 40
1
 40
1
 40
1
 10
2.654926
 20
-25.722971
 30
0.0
 10
2.492406
 20
-26.115329
 30
0.0
 10
2.582240
 20
-26.566953
 30
0.0
 10
2.882538
 20
-26.867251
 30
0.0
  0
SPLINE
  5
115
100
AcDbEntity
  8
Help
 62
7
100
AcDbSpline
 70
8
 71
3
 72
8
 73
4
 74
0
 40
0
 40
0
 40
0
 40
0
 40
1
 40
1
 40
1
 40
1
 10
2.882538
 20
-26.867251
 30
0.0
 10
3.182835
 20
-27.167548
 30
0.0
 10
3.634459
 20
-27.257382
 30
0.0
 10
4.026817
 20
-27.094862
 30
0.0
  0
SPLINE
  5
116
100
AcDbEntity
  8
Help
 62
7
100
AcDbSpline
 70
8
 71
3
 72
8
 73
4
 74
0
 40
0
 40
0
 40
0
 40
0
 40
1
 40
1
 40
1
 40
1
 10
4.026817
 20
-27.094862
 30
0.0
 10
4.419175
 20
-26.932342
 30
0.0
 10
4.675000
 20
-26.549474
 30
0.0
 10
4.675000
 20
-26.124788
 30
0.0
  0
SPLINE
  5
117
100
AcDbEntity
  8
Help
 62
7
100
AcDbSpline
 70
8
 71
3
 72
8
 73
4
 74
0
 40
0
 40
0
 40
0
 40
0
 40
1
 40
1
 40
1
 40
1
 10
4.675000
 20
-26.124788
 30
0.0
 10
4.675000
 20
-25.544890
 30
0.0
 10
4.204899
 20
-25.074789
 30
0.0
 10
3.625000
 20
-25.074789
 30
0.0
  0
LWPOLYLINE
  5
118
100
AcDbEntity
  8
Help
 62
7
100
AcDbPolyline
 90
1
 70
1
 10
93.864991
 20
-25.074789
 30
0.0
  0
LWPOLYLINE
  5
119
100
AcDbEntity
  8
Help
 62
7
100
AcDbPolyline
 90
1
 70
1
 10
3.625000
 20
-25.074789
 30
0.0
  0
LWPOLYLINE
  5
11a
100
AcDbEntity
  8
Help
 62
7
100
AcDbPolyline
 90
4
 70
1
 10
96.149991
 20
-1.099591
 30
0.0
 10
96.149991
 20
-107.149581
 30
0.0
 10
1.100000
 20
-107.149581
 30
0.0
 10
1.100000
 20
-1.099591
 30
0.0
  0
LWPOLYLINE
  5
11b
100
AcDbEntity
  8
Help
 62
7
100
AcDbPolyline
 90
4
 70
1
 10
3.625000
 20
-33.624789
 30
0.0
 10
17.624998
 20
-33.624789
 30
0.0
 10
17.624998
 20
-47.624785
 30
0.0
 10
3.625000
 20
-47.624785
 30
0.0
  0
LWPOLYLINE
  5
11c
100
AcDbEntity
  8
Help
 62
7
100
AcDbPolyline
 90
4
 70
1
 10
22.624998
 20
-33.624790
 30
0.0
 10
36.624997
 20
-33.624790
 30
0.0
 10
36.624997
 20
-47.624786
 30
0.0
 10
22.624998
 20
-47.624786
 30
0.0
  0
LWPOLYLINE
  5
11d
100
AcDbEntity
  8
Help
 62
7
100
AcDbPolyline
 90
4
 70
1
 10
41.624996
 20
-33.624788
 30
0.0
 10
55.624995
 20
-33.624788
 30
0.0
 10
55.624995
 20
-47.624784
 30
0.0
 10
41.624996
 20
-47.624784
 30
0.0
  0
LWPOLYLINE
  5
11e
100
AcDbEntity
  8
Help
 62
7
100
AcDbPolyline
 90
4
 70
1
 10
60.624994
 20
-33.624788
 30
0.0
 10
74.624993
 20
-33.624788
 30
0.0
 10
74.624993
 20
-47.624784
 30
0.0
 10
60.624994
 20
-47.624784
 30
0.0
  0
LWPOLYLINE
  5
11f
100
AcDbEntity
  8
Help
 62
7
100
AcDbPolyline
 90
4
 70
1
 10
79.624993
 20
-33.624788
 30
0.0
 10
93.624991
 20
-33.624788
 30
0.0
 10
93.624991
 20
-47.624784
 30
0.0
 10
79.624993
 20
-47.624784
 30
0.0
  0
LWPOLYLINE
  5
120
100
AcDbEntity
  8
Help
 62
7
100
AcDbPolyline
 90
4
 70
1
 10
3.625000
 20
-52.624788
 30
0.0
 10
17.624998
 20
-52.624788
 30
0.0
 10
17.624998
 20
-66.624785
 30
0.0
 10
3.625000
 20
-66.624785
 30
0.0
  0
LWPOLYLINE
  5
121
100
AcDbEntity
  8
Help
 62
7
100
AcDbPolyline
 90
4
 70
1
 10
22.624998
 20
-52.624789
 30
0.0
 10
36.624997
 20
-52.624789
 30
0.0
 10
36.624997
 20
-66.624786
 30
0.0
 10
22.624998
 20
-66.624786
 30
0.0
  0
LWPOLYLINE
  5
122
100
AcDbEntity
  8
Help
 62
7
100
AcDbPolyline
 90
4
 70
1
 10
41.624996
 20
-52.624787
 30
0.0
 10
55.624995
 20
-52.624787
 30
0.0
 10
55.624995
 20
-66.624784
 30
0.0
 10
41.624996
 20
-66.624784
 30
0.0
  0
LWPOLYLINE
  5
123
100
AcDbEntity
  8
Help
 62
7
100
AcDbPolyline
 90
4
 70
1
 10
60.624994
 20
-52.624787
 30
0.0
 10
74.624993
 20
-52.624787
 30
0.0
 10
74.624993
 20
-66.624784
 30
0.0
 10
60.624994
 20
-66.624784
 30
0.0
  0
LWPOLYLINE
  5
124
100
AcDbEntity
  8
Help
 62
7
100
AcDbPolyline
 90
4
 70
1
 10
79.624993
 20
-52.624787
 30
0.0
 10
93.624991
 20
-52.624787
 30
0.0
 10
93.624991
 20
-66.624784
 30
0.0
 10
79.624993
 20
-66.624784
 30
0.0
  0
LWPOLYLINE
  5
125
100
AcDbEntity
  8
Help
 62
7
100
AcDbPolyline
 90
4
 70
1
 10
3.625000
 20
-71.624786
 30
0.0
 10
17.624998
 20
-71.624786
 30
0.0
 10
17.624998
 20
-85.624783
 30
0.0
 10
3.625000
 20
-85.624783
 30
0.0
  0
LWPOLYLINE
  5
126
100
AcDbEntity
  8
Help
 62
7
100
AcDbPolyline
 90
4
 70
1
 10
22.624998
 20
-71.624787
 30
0.0
 10
36.624997
 20
-71.624787
 30
0.0
 10
36.624997
 20
-85.624784
 30
0.0
 10
22.624998
 20
-85.624784
 30
0.0
  0
LWPOLYLINE
  5
127
100
AcDbEntity
  8
Help
 62
7
100
AcDbPolyline
 90
4
 70
1
 10
41.624996
 20
-71.624785
 30
0.0
 10
55.624995
 20
-71.624785
 30
0.0
 10
55.624995
 20
-85.624782
 30
0.0
 10
41.624996
 20
-85.624782
 30
0.0
  0
LWPOLYLINE
  5
128
100
AcDbEntity
  8
Help
 62
7
100
AcDbPolyline
 90
4
 70
1
 10
60.624994
 20
-71.624785
 30
0.0
 10
74.624993
 20
-71.624785
 30
0.0
 10
74.624993
 20
-85.624782
 30
0.0
 10
60.624994
 20
-85.624782
 30
0.0
  0
LWPOLYLINE
  5
129
100
AcDbEntity
  8
Help
 62
7
100
AcDbPolyline
 90
4
 70
1
 10
79.624993
 20
-71.624785
 30
0.0
 10
93.624991
 20
-71.624785
 30
0.0
 10
93.624991
 20
-85.624782
 30
0.0
 10
79.624993
 20
-85.624782
 30
0.0
  0
LWPOLYLINE
  5
12a
100
AcDbEntity
  8
Help
 62
7
100
AcDbPolyline
 90
4
 70
1
 10
3.625000
 20
-90.624782
 30
0.0
 10
17.624998
 20
-90.624782
 30
0.0
 10
17.624998
 20
-104.624781
 30
0.0
 10
3.625000
 20
-104.624781
 30
0.0
  0
LWPOLYLINE
  5
12b
100
AcDbEntity
  8
Help
 62
7
100
AcDbPolyline
 90
4
 70
1
 10
22.624998
 20
-90.624783
 30
0.0
 10
36.624997
 20
-90.624783
 30
0.0
 10
36.624997
 20
-104.624781
 30
0.0
 10
22.624998
 20
-104.624781
 30
0.0
  0
LWPOLYLINE
  5
12c
100
AcDbEntity
  8
Help
 62
7
100
AcDbPolyline
 90
4
 70
1
 10
41.624996
 20
-90.624781
 30
0.0
 10
55.624995
 20
-90.624781
 30
0.0
 10
55.624995
 20
-104.624781
 30
0.0
 10
41.624996
 20
-104.624781
 30
0.0
  0
LWPOLYLINE
  5
12d
100
AcDbEntity
  8
Help
 62
7
100
AcDbPolyline
 90
4
 70
1
 10
60.624994
 20
-90.624781
 30
0.0
 10
74.624993
 20
-90.624781
 30
0.0
 10
74.624993
 20
-104.624781
 30
0.0
 10
60.624994
 20
-104.624781
 30
0.0
  0
LWPOLYLINE
  5
12e
100
AcDbEntity
  8
Help
 62
7
100
AcDbPolyline
 90
4
 70
1
 10
79.624993
 20
-90.624781
 30
0.0
 10
93.624991
 20
-90.624781
 30
0.0
 10
93.624991
 20
-104.624781
 30
0.0
 10
79.624993
 20
-104.624781
 30
0.0
  0
LWPOLYLINE
  5
12f
100
AcDbEntity
  8
Help
 62
7
100
AcDbPolyline
 90
2
 70
0
 10
1.125000
 20
-31.124788
 30
0.0
 10
96.124991
 20
-31.124788
 30
0.0
  0
ENDSEC
  0
SECTION
  2
OBJECTS
  0
DICTIONARY
  5
C
330
0
100
AcDbDictionary
  3
ACAD_GROUP
350
D
  3
ACAD_MLINESTYLE
350
17
  0
DICTIONARY
  5
D
330
C
100
AcDbDictionary
  0
DICTIONARY
  5
1A
330
C
100
AcDbDictionary
  0
DICTIONARY
  5
17
330
C
100
AcDbDictionary
  3
STANDARD
350
18
  0
DICTIONARY
  5
19
330
C
100
AcDbDictionary
  0
ENDSEC
  0
EOF
